<svg width="140" height="39" viewBox="0 0 140 39" fill="none" xmlns="http://www.w3.org/2000/svg">
<path d="M100.984 22.9447C100.908 18.1769 98.2598 9.5152 88.6328 9.5152H84.9563C84.8211 9.47298 84.6803 9.44343 84.531 9.44343H83.8997C82.2904 7.04123 76.8318 0 68.1256 0H57.188C48.4988 0 38.8224 9.52223 38.4147 9.92753C38.1493 10.1914 38 10.5495 38 10.9225V23.1558C38 23.9326 38.6341 24.563 39.4154 24.563H47.617C47.9808 27.6203 50.5993 30 53.7705 30C56.9418 30 59.5603 27.6196 59.924 24.563H80.4291C80.7929 27.6203 83.4114 30 86.5819 30C89.7524 30 92.3716 27.6196 92.7354 24.563H99.5704C99.5754 24.563 99.581 24.563 99.5846 24.563C100.367 24.563 101 23.9326 101 23.1558C100.999 23.084 100.994 23.0136 100.984 22.9447ZM80.3654 9.44343H69.1886L66.764 2.81452H68.1263C73.9748 2.81452 78.2239 6.83507 80.3654 9.44343ZM63.7513 2.81452L66.1759 9.44343H52.9538L50.5342 4.6313C52.7167 3.56459 55.0189 2.81452 57.188 2.81452H63.7513ZM53.7698 27.1855C51.9114 27.1855 50.3997 25.6825 50.3997 23.8355C50.3997 21.9885 51.9114 20.4855 53.7698 20.4855C55.6283 20.4855 57.1399 21.9885 57.1399 23.8355C57.1399 25.6825 55.6283 27.1855 53.7698 27.1855ZM86.5819 27.1855C84.7242 27.1855 83.2125 25.6825 83.2125 23.8355C83.2125 21.9885 84.7242 20.4855 86.5819 20.4855C88.4403 20.4855 89.952 21.9885 89.952 23.8355C89.952 25.6825 88.4403 27.1855 86.5819 27.1855ZM92.4092 21.7485C91.5465 19.3752 89.2634 17.671 86.5819 17.671C83.9004 17.671 81.618 19.3752 80.7554 21.7485H59.5971C58.7344 19.3752 56.4513 17.671 53.7698 17.671C51.0883 17.671 48.806 19.3752 47.9426 21.7485H40.8301V11.522C41.8506 10.5692 44.6496 8.07275 48.0551 5.99564L50.813 11.4797C51.0529 11.9561 51.5427 12.2572 52.0791 12.2572H82.7398C82.8764 12.3002 83.0179 12.329 83.1651 12.329H88.6335C92.5316 12.329 95.3051 14.0818 96.8769 17.538C97.5811 19.0853 97.8967 20.6607 98.0397 21.7478H92.4092V21.7485Z" fill="#EE653A"/>
<rect x="38" y="37" width="102" height="2" fill="#EE653A"/>
<rect x="21" y="37" width="12" height="2" fill="#EE653A"/>
<rect x="9" y="37" width="7" height="2" fill="#EE653A"/>
<rect y="37" width="4" height="2" fill="#EE653A"/>
</svg>
