<?xml version="1.0" encoding="utf-8"?>
<!-- Generator: Adobe Illustrator 24.0.1, SVG Export Plug-In . SVG Version: 6.00 Build 0)  -->
<svg version="1.1" id="Layer_1" xmlns="http://www.w3.org/2000/svg" xmlns:xlink="http://www.w3.org/1999/xlink" x="0px" y="0px"
	 viewBox="0 0 511 75" enable-background="new 0 0 511 75" xml:space="preserve">
<path fill="#FFFFFF" d="M9.857,36.204c0-4.085,0.743-7.951,2.215-11.61c1.484-3.659,3.507-6.837,6.092-9.519
	c2.587-2.683,5.737-4.814,9.478-6.396c3.728-1.568,7.732-2.352,12.01-2.352c4.965,0,9.215,0.77,12.75,2.297
	c3.537,1.54,6.81,3.742,9.85,6.63l-6.479,7.51c-2.53-2.311-5.089-4.099-7.662-5.337c-2.585-1.238-5.433-1.857-8.542-1.857
	c-3.605,0-6.864,0.922-9.795,2.751c-2.93,1.83-5.214,4.32-6.836,7.469c-1.623,3.137-2.434,6.603-2.434,10.414
	c0,5.75,1.816,10.62,5.446,14.623c3.618,4.002,8.157,6.012,13.619,6.012c3.328,0,6.244-0.62,8.762-1.858
	c2.516-1.238,5.13-3.137,7.84-5.667l6.521,6.63c-2.146,2.214-4.279,4.017-6.383,5.433c-2.105,1.404-4.608,2.546-7.497,3.412
	c-2.89,0.867-6.081,1.293-9.574,1.293c-5.503,0-10.51-1.32-15.009-3.947c-4.497-2.628-8.02-6.231-10.563-10.785
	C11.123,46.783,9.857,41.734,9.857,36.204L9.857,36.204z"/>
<path fill="#FFFFFF" d="M68.346,65.09L93.767,6.904h9.437l25.393,58.186h-10.729l-5.847-13.947H84.703L78.745,65.09H68.346
	L68.346,65.09z M88.416,42.147h19.906L98.32,19.023L88.416,42.147L88.416,42.147z"/>
<path fill="#FFFFFF" d="M138.474,65.09V7.317h25.778c6.698,0,11.967,1.665,15.777,4.993c3.824,3.329,5.736,7.799,5.736,13.398
	c0,4.581-1.238,8.336-3.729,11.28c-2.489,2.943-5.859,5.02-10.137,6.231l15.599,21.871h-11.969l-14.346-20.138h-12.561V65.09
	H138.474L138.474,65.09z M148.624,35.957h14.857c3.632,0,6.521-0.88,8.667-2.655c2.146-1.775,3.22-4.168,3.22-7.181
	c0-3.067-1.046-5.434-3.137-7.084c-2.104-1.651-5.034-2.476-8.832-2.476h-14.774V35.957L148.624,35.957z"/>
<path fill="#FFFFFF" d="M248.699,65.09V7.317h21.554c4.457,0,8.599,0.743,12.437,2.215c3.852,1.471,7.096,3.493,9.752,6.052
	c2.654,2.572,4.746,5.625,6.245,9.189c1.499,3.549,2.257,7.359,2.257,11.403c0,4.044-0.758,7.827-2.257,11.376
	c-1.499,3.549-3.591,6.617-6.245,9.188c-2.656,2.586-5.9,4.622-9.752,6.107c-3.838,1.5-7.979,2.242-12.437,2.242H248.699
	L248.699,65.09z M258.85,55.848h11.391c6.011,0,10.866-1.83,14.538-5.475c3.675-3.66,5.518-8.392,5.518-14.196
	c0-5.709-1.843-10.413-5.53-14.1c-3.701-3.673-8.528-5.516-14.525-5.516H258.85V55.848L258.85,55.848z"/>
<path fill="#FFFFFF" d="M313.213,65.09V7.317h25.778c6.698,0,11.967,1.665,15.777,4.993c3.823,3.329,5.736,7.799,5.736,13.398
	c0,4.581-1.237,8.336-3.728,11.28c-2.49,2.943-5.86,5.02-10.138,6.231l15.599,21.871h-11.967l-14.348-20.138h-12.56V65.09H313.213
	L313.213,65.09z M323.364,35.957h14.857c3.63,0,6.52-0.88,8.665-2.655c2.146-1.775,3.219-4.168,3.219-7.181
	c0-3.067-1.045-5.434-3.136-7.084c-2.105-1.651-5.034-2.476-8.83-2.476h-14.775V35.957L323.364,35.957z"/>
<polygon fill="#FFFFFF" points="373.435,65.09 373.435,7.317 383.587,7.317 383.587,65.09 373.435,65.09 "/>
<polygon fill="#FFFFFF" points="394.043,7.317 405.279,7.317 422.695,51.721 440.027,7.317 451.018,7.317 427,65.504 
	418.059,65.504 394.043,7.317 "/>
<polygon fill="#FFFFFF" points="460.908,65.09 460.908,7.317 503.743,7.317 503.743,16.313 471.06,16.313 471.06,31.499 
	500.029,31.499 500.029,40.497 471.06,40.497 471.06,56.095 504.143,56.095 504.143,65.09 460.908,65.09 "/>
<path fill="#DE6C47" d="M194.652,65.09v-7.95l19.959-16.947c4.072-3.425,6.891-6.245,8.459-8.487
	c1.582-2.242,2.366-4.636,2.366-7.193c0-2.779-0.867-4.98-2.613-6.603c-1.747-1.61-3.99-2.421-6.699-2.421
	c-2.518,0-4.788,0.689-6.81,2.064c-2.009,1.375-4.209,3.59-6.563,6.63l-7.179-5.626c1.967-2.751,3.865-4.966,5.709-6.63
	c1.83-1.664,4.057-2.998,6.644-3.975c2.586-0.977,5.571-1.458,8.928-1.458c5.667,0,10.248,1.595,13.742,4.787
	c3.494,3.191,5.241,7.387,5.241,12.586c0,1.802-0.207,3.494-0.62,5.048c-0.426,1.568-0.978,2.998-1.678,4.305
	c-0.701,1.307-1.72,2.711-3.081,4.209c-1.362,1.5-2.725,2.889-4.113,4.155c-1.39,1.266-3.22,2.833-5.503,4.732l-11.885,9.945h27.541
	v8.83H194.652L194.652,65.09z"/>
</svg>
