<svg width="27" height="27" viewBox="0 0 27 27" fill="none" xmlns="http://www.w3.org/2000/svg">
<path fill-rule="evenodd" clip-rule="evenodd" d="M26 13.5C26 20.4036 20.4036 26 13.5 26C6.59644 26 1 20.4036 1 13.5C1 6.59644 6.59644 1 13.5 1C20.4036 1 26 6.59644 26 13.5ZM27 13.5C27 20.9558 20.9558 27 13.5 27C6.04416 27 0 20.9558 0 13.5C0 6.04416 6.04416 0 13.5 0C20.9558 0 27 6.04416 27 13.5ZM16.124 16.2464C16.6759 15.698 17.3693 15.698 17.9247 16.2464L17.9252 16.2469C18.6007 16.9189 19.2762 17.5909 19.9482 18.2664C20.5107 18.8324 20.5072 19.5258 19.9411 20.0989C19.8102 20.231 19.6763 20.3611 19.5424 20.4912C19.2856 20.7408 19.0286 20.9906 18.7914 21.2557C18.2643 21.8465 17.6063 22.0375 16.8493 21.995C15.749 21.9349 14.7373 21.5705 13.7609 21.0965C11.5923 20.0423 9.7386 18.5812 8.18558 16.7346C7.03585 15.369 6.08776 13.8797 5.46514 12.2029C5.1609 11.3927 4.94511 10.5614 5.01232 9.68053C5.05477 9.13927 5.25642 8.67584 5.65617 8.29731C5.91508 8.05114 6.16507 7.7986 6.41532 7.5458L6.41533 7.54579C6.58224 7.37719 6.74926 7.20847 6.91911 7.04145C7.47098 6.49666 8.16435 6.49666 8.71976 7.03792C8.94848 7.26192 9.17406 7.48907 9.39964 7.71622L9.39969 7.71627L9.39979 7.71637L9.39999 7.71658C9.51273 7.8301 9.62547 7.94362 9.7386 8.05676C9.90309 8.22301 10.0676 8.3875 10.2321 8.55199L10.2323 8.55226C10.3968 8.71668 10.5612 8.8811 10.7256 9.04729C11.3058 9.631 11.3058 10.3102 10.7291 10.8904L10.5512 11.07L10.5511 11.0701C10.1972 11.4274 9.84446 11.7837 9.48389 12.1321C9.37423 12.2418 9.36361 12.3302 9.42021 12.4646C9.69969 13.1297 10.0994 13.7205 10.5487 14.2724C11.4544 15.3832 12.4767 16.3702 13.6972 17.1379C13.8553 17.2361 14.0236 17.3189 14.1921 17.4017L14.1922 17.4018L14.1923 17.4018C14.3029 17.4562 14.4136 17.5106 14.5215 17.5695C14.6595 17.6473 14.755 17.6225 14.8682 17.5058C15.282 17.0814 15.7028 16.6641 16.1237 16.2467L16.1238 16.2466L16.1239 16.2466L16.124 16.2464ZM17.2489 13.4269L18.5543 13.2041C18.3491 12.0048 17.7831 10.9187 16.9234 10.0556C16.0142 9.14639 14.8645 8.57329 13.598 8.39641L13.4141 9.70887C14.394 9.84684 15.2855 10.289 15.9895 10.993C16.6546 11.6581 17.0897 12.5001 17.2489 13.4269ZM13.7715 5C15.8764 5.29362 17.7832 6.24525 19.2902 7.75228C20.7194 9.18502 21.6569 10.9892 22 12.9774L20.6946 13.2002C20.401 11.4845 19.5909 9.92439 18.3563 8.68975C17.0544 7.39144 15.4059 6.56717 13.5875 6.31246L13.7715 5Z" fill="#FFDC42"/>
</svg>
